<?xml version="1.0" encoding="utf-8"?>
<!-- Generator: Adobe Illustrator 25.4.1, SVG Export Plug-In . SVG Version: 6.00 Build 0)  -->
<svg version="1.1" id="Layer_1" xmlns="http://www.w3.org/2000/svg" xmlns:xlink="http://www.w3.org/1999/xlink" x="0px" y="0px"
	 viewBox="0 0 169.7 169.7" style="enable-background:new 0 0 169.7 169.7;" xml:space="preserve">
<style type="text/css">
	.st0{fill:url(#SVGID_1_);}
	.st1{fill:url(#SVGID_00000117634093429523762580000003897841110263784856_);}
	.st2{fill:#FFFFFF;}
</style>
<linearGradient id="SVGID_1_" gradientUnits="userSpaceOnUse" x1="84.83" y1="167.7544" x2="84.83" y2="1.9156">
	<stop  offset="0" style="stop-color:#3347FF"/>
	<stop  offset="1" style="stop-color:#3366FF"/>
</linearGradient>
<path class="st0" d="M84.8,167.8L84.8,167.8c-45.8,0-82.9-37.1-82.9-82.9v0C1.9,39,39,1.9,84.8,1.9h0c45.8,0,82.9,37.1,82.9,82.9v0
	C167.7,130.6,130.6,167.8,84.8,167.8z"/>
<g>
	<path class="st2" d="M64.1,49.4L89.7,122H73.2l-4.7-15H41.7l-5.1,15h-16l25.9-72.6H64.1z M55.1,65.8l-9.3,28.7h18.5l-9-28.7H55.1z"
		/>
	<path class="st2" d="M117.8,49.4H85.2v52.5l7.1,20.2h24.9c17.4,0,29.6-14,29.6-38C146.8,64.5,137.6,49.4,117.8,49.4z M115.1,109.5
		h-15.1V61.9h15.2c11.8,0,16.1,9.3,16.1,23.1C131.3,100.2,125.2,109.5,115.1,109.5z"/>
</g>
</svg>
